#!OML:ASF I:\Actors\actors\Patient Classification 2\Patient 1\Session 1\actor1.ASF
:FULLY-SPECIFIED
:DEGREES
188
root -0.905735 18.1198 5.35076 20.9882 -0.301056 -1.62556
lowerback 22.8757 -0.95873 0.489842
upperback -1.10845 -1.21316 -0.565544
thorax -14.2076 -0.613824 -0.507832
lowerneck -15.7107 -6.27972 -3.84981
upperneck -18.9677 -7.34859 6.48566
head -3.22834 -3.60485 2.66796
rclavicle -4.37326e-015 -7.95139e-015
rhumerus -69.8959 0.130048 -97.4751
rradius 115.065
rwrist 25.5569
rhand -11.9437 -42.9339
rfingers 7.12502
rthumb 14.1112 -72.4348
lclavicle -4.37326e-015 -7.95139e-015
lhumerus -62.5044 -3.4514 96.6911
lradius 126.206
lwrist -20.2121
lhand 18.0347 -4.49769
lfingers 7.12502
lthumb 42.7001 19.8534
rfemur -35.2866 -11.588 19.2097
rtibia 36.5328
rfoot -20.659 2.91309
rtoes -13.2501
lfemur -41.6019 10.0983 -13.9421
ltibia 43.9191
lfoot -20.7338 -1.58925
ltoes -57.2373
189
root -0.910949 18.1254 5.37798 20.911 -0.390267 -1.60052
lowerback 22.9091 -0.978661 0.645176
upperback -1.34561 -1.23952 -0.84608
thorax -14.5197 -0.653922 -0.906971
lowerneck -15.8565 -6.51961 -3.90835
upperneck -18.8253 -7.64213 6.64718
head -3.12853 -3.74686 2.7099
rclavicle 9.54166e-015 1.19271e-014
rhumerus -70.1839 -0.179495 -97.7869
rradius 115.123
rwrist 25.8513
rhand -11.2725 -43.1877
rfingers 7.12502
rthumb 14.758 -72.6423
lclavicle 9.54166e-015 1.19271e-014
lhumerus -62.957 -3.60876 96.4609
lradius 126.357
lwrist -20.334
lhand 18.6648 -4.13893
lfingers 7.12502
lthumb 43.2893 20.004
rfemur -35.0255 -11.5726 19.1585
rtibia 36.3533
rfoot -20.6284 2.97157
rtoes -13.1377
lfemur -41.3154 10.1005 -13.9278
ltibia 43.7861
lfoot -20.7954 -1.5339
ltoes -57.1028
190
root -0.917513 18.1332 5.4055 20.8205 -0.516137 -1.57203
lowerback 22.8512 -0.993251 0.574905
upperback -1.4927 -1.30888 -1.04245
thorax -14.6667 -0.691565 -1.06761
lowerneck -15.8437 -6.66173 -3.87817
upperneck -18.8908 -7.83054 6.70597
head -3.14269 -3.84382 2.72059
rclavicle 1.98785e-015 -5.56597e-015
rhumerus -70.3498 -0.243228 -98.1197
rradius 115.191
rwrist 26.0182
rhand -10.5382 -43.6244
rfingers 7.12502
rthumb 15.4653 -73.0258
lclavicle 1.98785e-015 -5.56597e-015
lhumerus -63.2904 -3.60435 96.2482
lradius 126.554
lwrist -20.4204
lhand 19.2628 -3.63784
lfingers 7.12502
lthumb 43.8477 20.3016
rfemur -34.7549 -11.54 19.0967
rtibia 36.1793
rfoot -20.6078 3.03598
rtoes -13.0175
lfemur -41.0094 10.1532 -13.9329
ltibia 43.6508
lfoot -20.8298 -1.49257
ltoes -57.046
191
root -0.926456 18.1409 5.43212 20.7189 -0.68102 -1.61986
lowerback 22.7927 -1.00747 0.421664
upperback -1.59627 -1.38969 -1.16526
thorax -14.7581 -0.72332 -1.09268
lowerneck -15.9263 -6.76612 -3.8742
upperneck -18.9271 -7.96398 6.75722
head -3.13353 -3.91068 2.73044
rclavicle 6.36111e-015 1.19271e-014
rhumerus -70.4109 -0.135903 -98.4207
rradius 115.185
rwrist 25.9471
rhand -10.3933 -43.5232
rfingers 7.12502
rthumb 15.6048 -72.9138
lclavicle 6.36111e-015 1.19271e-014
lhumerus -63.4796 -3.48242 96.0616
lradius 126.74
lwrist -20.5017
lhand 19.7161 -3.20848
lfingers 7.12502
lthumb 44.2705 20.5728
rfemur -34.4752 -11.4028 19.0979
rtibia 36.0124
rfoot -20.6364 3.06097
rtoes -12.9114
lfemur -40.681 10.2635 -13.8571
ltibia 43.5125
lfoot -20.8555 -1.40751
ltoes -57.1484
192
root -0.932889 18.1462 5.45777 20.59 -0.861845 -1.61081
lowerback 22.7314 -0.987985 0.255318
upperback -1.65773 -1.42751 -1.27845
thorax -14.796 -0.733778 -1.1144
lowerneck -16.0866 -6.99043 -4.1704
upperneck -18.9289 -8.20242 6.94094
head -3.07643 -4.01172 2.82761
rclavicle 1.98785e-015 0
rhumerus -70.3611 -0.0465755 -98.5339
rradius 115.176
rwrist 26.0397
rhand -9.88963 -43.4739
rfingers 7.12502
rthumb 16.0899 -72.8259
lclavicle 1.98785e-015 0
lhumerus -63.5586 -3.37162 96.0209
lradius 126.88
lwrist -20.6267
lhand 20.4144 -3.07146
lfingers 7.12502
lthumb 44.9209 20.4592
rfemur -34.1794 -11.3484 19.0418
rtibia 35.8459
rfoot -20.5757 3.15564
rtoes -12.6305
lfemur -40.3217 10.3209 -13.8415
ltibia 43.3676
lfoot -20.8874 -1.28337
ltoes -57.2336
193
root -0.937798 18.1504 5.48323 20.4603 -1.03656 -1.57278
lowerback 22.6415 -0.928462 0.145875
upperback -1.68841 -1.39625 -1.39479
thorax -14.7801 -0.717806 -1.19673
lowerneck -16.2902 -7.37606 -4.67584
upperneck -18.9136 -8.6262 7.1274
head -2.98617 -4.19068 2.95009
rclavicle 5.56597e-015 -9.54166e-015
rhumerus -70.2371 -0.0533431 -98.4808
rradius 115.182
rwrist 26.0951
rhand -9.18404 -43.7298
rfingers 7.12502
rthumb 16.7693 -73.0256
lclavicle 5.56597e-015 -9.54166e-015
lhumerus -63.6529 -3.37997 96.0994
lradius 127.056
lwrist -20.7629
lhand 21.4388 -2.86813
lfingers 7.12502
lthumb 45.873 20.2791
rfemur -33.8976 -11.3827 18.9774
rtibia 35.6738
rfoot -20.4262 3.28476
rtoes -12.3955
lfemur -39.9637 10.3786 -13.8657
ltibia 43.2128
lfoot -20.9462 -1.22053
ltoes -57.2701
